<svg xmlns="http://www.w3.org/2000/svg" width="1440" height="354" viewBox="0 0 1440 354">
    <defs>
        <linearGradient id="prefix__a" x1="50.463%" x2="50.463%" y1="-64.717%" y2="66.971%">
            <stop offset="0%" stop-color="#FFF"/>
            <stop offset="100%" stop-color="#6797D0" stop-opacity="0"/>
        </linearGradient>
    </defs>
    <path fill="url(#prefix__a)" fill-rule="evenodd" d="M-352 389.075L-341.995 392.275 -328.805 380.077 -318.515 376.414 -309.85 384.345 -301.604 380.077 -292.39 380.077 -284.358 378.556 -273.876 384.345 -265.145 380.077 -257.028 386.708 -251.84 372.815 -243.171 367.585 -233.186 365.606 -227.846 356.509 -210.875 346.524 -199.52 356.509 -194.312 364.104 -177.036 356.509 -169.18 365.606 -160.855 359.86 -152.533 372.815 -144.537 356.509 -137.249 350.261 -126.926 346.524 -118.719 331.56 -111.486 327.308 -100.543 329.413 -92.459 333.47 -85.423 338.952 -77.414 333.47 -68.822 338.952 -52.841 331.56 -43.918 336.319 -36.77 325.323 -20.21 331.56 -9.218 329.413 -3.521 321.549 22.835 331.56 46.15 331.56 57.779 338.952 64.395 325.323 81.797 342.858 88.649 352.691 96.979 352.691 105.431 370.299 113.141 356.912 122.775 365.606 129.569 356.509 138.71 356.912 146.862 354.398 156.743 364.104 164.168 359.86 173.377 361.956 181.06 346.524 188.043 346.524 196.042 342.858 205.105 359.86 214.259 346.524 221.265 350.261 229.818 346.524 246.786 370.299 253.69 367.585 261.716 372.815 271.013 389.075 279.311 386.708 286.228 378.556 303.548 392.275 313.657 392.275 319.603 389.075 328.746 386.708 338.287 376.414 346.812 378.556 354.331 370.299 364.563 370.299 371.16 364.104 379.433 365.606 387.522 364.104 395.778 370.299 404.765 392.275 413.971 394.777 420.902 400.117 436.812 380.077 447.697 386.708 452.666 384.345 460.468 390.667 470.609 394.777 478.397 389.075 487.334 389.075 495.006 384.345 503.943 384.345 510.213 374.311 518.121 367.585 528.213 367.585 537.008 364.104 545.451 370.299 554.103 367.585 563.613 378.556 568.898 352.691 577.69 359.86 587.406 356.912 596.697 356.912 604.959 350.261 614.149 350.261 626.62 359.86 626.62 365.606 637.854 365.606 653.489 359.86 663.447 364.104 668.126 356.912 677.354 352.691 686.488 350.261 696.836 352.691 702.881 348.13 730.342 342.858 737.683 327.308 752.086 315.627 762.911 313.478 770.138 307.875 779.838 309.952 783.757 307.875 794.184 305.98 802.147 300.512 810.521 300.512 818.591 305.98 836.611 300.512 851.596 276.135 861.798 283.13 870.23 283.13 877.809 277.664 894.599 303.878 902.653 296.871 909.411 300.512 917.764 300.512 925.197 291.399 934.664 288.49 943.714 291.399 951.827 277.664 960.567 276.135 971.008 276.135 986.89 261.645 993.596 273.567 1002.816 270.244 1009.618 288.49 1016.171 281.746 1027.21 280.116 1035.104 276.135 1043.514 277.664 1058.126 248.379 1068.507 243.224 1078.121 251.898 1084.745 241.802 1093.691 250.026 1103.959 254.196 1110.377 243.224 1119.871 243.224 1128.029 254.196 1134.2 243.224 1153.216 236.069 1162.059 251.898 1168.532 270.244 1177.181 280.116 1184.209 248.379 1191.535 241.802 1201.611 241.802 1208.743 232.606 1218.009 236.069 1226.384 261.645 1234.646 255.902 1243.964 254.196 1252.47 243.224 1258.922 260.224 1268.13 267.592 1275.001 225.41 1283.159 216.988 1291.177 221.492 1302.927 216.988 1316.737 211.697 1329.59 219.381 1333.917 223.684 1343.386 223.684 1357.801 211.697 1366.727 211.697 1376.199 213.919 1382.441 181.929 1389.968 181.929 1399.97 163.606 1408.564 166.706 1417.589 145 1426.112 156.223 1434.102 151.146 1440.948 163.606 1450.308 148.834 1463.188 152.939 1484.638 166.706 1491.706 181.929 1499.274 187.616 1517.118 245.94 1525.479 236.069 1532.04 254.196 1542.486 260.224 1549.596 288.49 1558.269 277.664 1565.785 291.399 1581.102 276.135 1591.894 273.567 1599.594 258.455 1607.976 250.026 1617.333 250.026 1631.739 243.224 1639.077 245.94 1648.291 221.492 1657.505 213.919 1666.711 215.322 1673.291 201.871 1682.483 198.371 1689.618 189.966 1699.79 187.616 1707.467 175.749 1714.783 201.871 1731.458 234.336 1740.905 243.224 1748.254 213.919 1757.487 208.679 1766.026 198.371 1772 201.871 1772 673 -352 673z" opacity=".509" transform="translate(0 -145)"/>
</svg>
